<?xml version="1.0" encoding="UTF-8" standalone="no"?>
<svg
   xmlns:dc="http://purl.org/dc/elements/1.1/"
   xmlns:cc="http://creativecommons.org/ns#"
   xmlns:rdf="http://www.w3.org/1999/02/22-rdf-syntax-ns#"
   xmlns:svg="http://www.w3.org/2000/svg"
   xmlns="http://www.w3.org/2000/svg"
   xmlns:sodipodi="http://sodipodi.sourceforge.net/DTD/sodipodi-0.dtd"
   xmlns:inkscape="http://www.inkscape.org/namespaces/inkscape"
   viewBox="0 0 24 24"
   fill="black"
   width="18px"
   height="18px"
   version="1.1"
   id="svg6"
   sodipodi:docname="edit-black-18dp.svg"
   inkscape:version="0.92.4 (5da689c313, 2019-01-14)">
  <metadata
     id="metadata12">
    <rdf:RDF>
      <cc:Work
         rdf:about="">
        <dc:format>image/svg+xml</dc:format>
        <dc:type
           rdf:resource="http://purl.org/dc/dcmitype/StillImage" />
      </cc:Work>
    </rdf:RDF>
  </metadata>
  <defs
     id="defs10" />
  <sodipodi:namedview
     pagecolor="#ffffff"
     bordercolor="#666666"
     borderopacity="1"
     objecttolerance="10"
     gridtolerance="10"
     guidetolerance="10"
     inkscape:pageopacity="0"
     inkscape:pageshadow="2"
     inkscape:window-width="3376"
     inkscape:window-height="1417"
     id="namedview8"
     showgrid="false"
     inkscape:zoom="52.444444"
     inkscape:cx="7.6594463"
     inkscape:cy="11.003703"
     inkscape:window-x="-8"
     inkscape:window-y="-8"
     inkscape:window-maximized="1"
     inkscape:current-layer="svg6" />
  <path
     d="M0 0h24v24H0z"
     fill="none"
     id="path2" />
  <path
     style="fill:#007bff;stroke-width:0.07627118;fill-opacity:1;stroke:none"
     d="M 2.2576271,14.342534 V 12.988458 L 6.3958665,8.8507413 10.534106,4.7130244 11.90593,6.0864383 13.277754,7.4598522 9.1599044,11.578231 5.0420551,15.69661 h -1.392214 -1.392214 z"
     id="path3717"
     inkscape:connector-curvature="0"
     transform="scale(1.3333333)" />
  <path
     style="fill:#007bff;fill-opacity:1;stroke-width:0.07627118"
     d="M 12.759434,5.2238572 11.365141,3.8280342 12.12371,3.0919513 c 0.796607,-0.7729929 1.019229,-0.8938574 1.374987,-0.7464977 0.312512,0.1294465 2.120837,1.9802268 2.185144,2.2364453 0.08358,0.3330202 -0.0737,0.5874221 -0.826871,1.3374631 l -0.703242,0.7003181 z"
     id="path4524"
     inkscape:connector-curvature="0"
     transform="scale(1.3333333)" />
  <path
     style="fill:#007bff;fill-opacity:1;stroke:none;stroke-width:0.05393187"
     d="M 2.2926006,14.347097 V 13.012151 L 6.4182526,8.8867627 10.543905,4.761375 11.892475,6.1091355 13.241044,7.4568959 9.1287341,11.569469 5.0164245,15.682043 H 3.6545126 2.2926006 Z"
     id="path4526"
     inkscape:connector-curvature="0"
     transform="scale(1.3333333)" />
  <path
     style="fill:#007bff;fill-opacity:1;stroke:none;stroke-width:0.05393187"
     d="M 12.765699,5.2026138 11.401544,3.8376717 12.073421,3.1838371 c 0.638198,-0.6210587 0.990375,-0.8771471 1.20565,-0.8766975 0.05309,1.109e-4 0.177939,0.049834 0.27744,0.1104963 0.244089,0.1488118 1.166979,1.0455978 1.687756,1.6400178 0.6359,0.7258228 0.611357,0.8196628 -0.511867,1.9571006 -0.300242,0.3040409 -0.558641,0.5528017 -0.57422,0.5528017 -0.01558,0 -0.642196,-0.614224 -1.392481,-1.3649422 z"
     id="path4528"
     inkscape:connector-curvature="0"
     transform="scale(1.3333333)" />
  <path
     style="fill:#007bff;fill-opacity:1;stroke:none;stroke-width:0.0190678;stroke-opacity:1"
     d="M 2.2670735,14.334523 V 12.985459 L 6.4000514,8.8525142 10.533029,4.7195693 11.901094,6.0877332 13.269159,7.4558971 9.155282,11.569741 5.0414049,15.683586 H 3.6542391 2.2670735 Z"
     id="path4530"
     inkscape:connector-curvature="0"
     transform="scale(1.3333333)" />
</svg>
